# xmcd
#
# Track frame offsets:
#	182
#	24030
#	50860
#	75225
#	96520
#	124865
#
# Disc length: 1732 seconds
#
# Revision: 12
# Processed by: cddbd v1.5.2PL0 Copyright (c) Steve Scherf et al.
# Submitted via: EasyCDDAExtractor 15.3.0.1
#
DISCID=4206c206
DTITLE=George Michael - Five Live
DYEAR=1993
DGENRE=Pop
TTITLE0=Somebody To Love
TTITLE1=Killer
TTITLE2=Papa Was A Rollin' Stone
TTITLE3=These Are The Days Of Our Lives (With Lisa Stansfield)
TTITLE4=Calling You
TTITLE5=Dear Friends (Performed By Queen)
EXTD=
EXTT0=
EXTT1=
EXTT2=
EXTT3=
EXTT4=
EXTT5=
PLAYORDER=
